# xmcd
#
# Track frame offsets:
#       150
#       17671
#       30075
#       55843
#       64108
#       77745
#       105419
#       128157
#       139790
#
# Disc length: 2518 seconds
#
# Revision: 0
# Processed by: cddbd v1.4PL0 Copyright (c) Steve Scherf et al.
# Submitted via: CD-DA_X-Tractor v0.24
#
DISCID=6709d409
DTITLE=Jeff King - 11th Hour
DYEAR=2002
DGENRE=Bluegrass
TTITLE0=Johnschool (catch and release)
TTITLE1=Wiebo
TTITLE2=Whisky Mike
TTITLE3=Z - 28
TTITLE4=VIVA Quebec Leave
TTITLE5=a) Chapter 13, b) LADY Die
TTITLE6=King of the blues
TTITLE7=A HEAD OF His Time
TTITLE8=a) Inside Job, b) Goodnight Irene, c) Bigfoot, d) Rodeo CLOWN
EXTD=
EXTT0=
EXTT1=
EXTT2=
EXTT3=
EXTT4=
EXTT5=
EXTT6=
EXTT7=
EXTT8=
PLAYORDER=
